<?xml version="1.0" encoding="utf-8"?>
<!-- Generator: Adobe Illustrator 20.1.0, SVG Export Plug-In . SVG Version: 6.00 Build 0)  -->
<svg version="1.1" id="Layer_1" xmlns="http://www.w3.org/2000/svg" xmlns:xlink="http://www.w3.org/1999/xlink" x="0px" y="0px"
	 viewBox="0 0 500 81.5" style="enable-background:new 0 0 500 81.5;" xml:space="preserve">
<style type="text/css">
	.st0{fill:#FFFFFF;}
</style>
<g>
	<path class="st0" d="M0,7.9c0-4.8,4-7.7,9.3-7.7s9.3,2.9,9.3,7.7v0.2c0,4.8-4,7.8-9.3,7.8S0,13,0,8.2V7.9z M1,29.5
		c0-4.6,3.7-8.3,8.3-8.3c4.6,0,8.3,3.7,8.3,8.3v43.1c0,4.6-3.7,8.3-8.3,8.3c-4.6,0-8.3-3.7-8.3-8.3V29.5z M25.8,29.5
		c0-4.6,3.5-8.3,8.1-8.3s8.1,3.7,8.1,8.3v0.7c3.7-4.9,8.9-9.4,17.3-9.4c12.5,0,20,8.3,20,21.7v30.2c0,4.6-4.1,8.3-8.7,8.3
		c-4.6,0-8.7-3.7-8.7-8.3V47.7c0-7.8-3.5-11.9-9.8-11.9c-6.3,0-10.1,4-10.1,11.9v24.9c0,4.6-3.5,8.3-8.1,8.3s-8.1-3.7-8.1-8.3V29.5z
		 M88.8,36h-0.7c-3.8,0-6.9-2.9-6.9-6.8s3-6.9,6.9-6.9h0.7v-3.7c0-6.4,1.6-11.1,4.7-14.2c3-3,7.5-4.6,13.4-4.6
		c2.6,0,4.9,0.1,6.8,0.4c2.8,0.4,5.7,2.9,5.7,6.6s-3,6.9-6.7,6.9h-1.4c-3.8,0-6,2-6,6.3v2.3h7.2c3.8,0,6.9,2.9,6.9,6.8
		s-3,6.8-6.9,6.8h-7v36.6c0,4.6-3.7,8.3-8.3,8.3c-4.6,0-8.3-3.7-8.3-8.3V36z M117.1,51.4v-0.2c0-16.8,13.5-30.4,31.7-30.4
		c18.1,0,31.5,13.4,31.5,30.2v0.2c0,16.8-13.5,30.4-31.7,30.4C130.5,81.5,117.1,68.2,117.1,51.4z M163.9,51.4v-0.2
		c0-8.6-6.2-16.1-15.4-16.1c-9.5,0-15.1,7.3-15.1,15.9v0.2c0,8.6,6.2,16.1,15.4,16.1C158.2,67.3,163.9,60,163.9,51.4z M185.8,29.5
		c0-4.6,3.7-8.3,8.3-8.3c4.6,0,8.3,3.7,8.3,8.3v0.7c3.8-4.9,8.8-9.4,17.2-9.4c7.6,0,13.4,3.4,16.4,9.3c5.1-6,11.2-9.3,19.2-9.3
		c12.3,0,19.7,7.4,19.7,21.4v30.4c0,4.6-3.7,8.3-8.3,8.3c-4.6,0-8.3-3.7-8.3-8.3V47.7c0-7.8-3.5-11.9-9.7-11.9c-6.2,0-10,4-10,11.9
		v24.9c0,4.6-3.7,8.3-8.3,8.3c-4.6,0-8.3-3.7-8.3-8.3V47.7c0-7.8-3.5-11.9-9.7-11.9c-6.2,0-10,4-10,11.9v24.9c0,4.6-3.7,8.3-8.3,8.3
		c-4.6,0-8.3-3.7-8.3-8.3V29.5z M349.3,8.4c0-4.6,3.7-8.3,8.3-8.3c4.6,0,8.3,3.7,8.3,8.3v36.1l20.7-19.6c2.4-2.3,4.4-3.7,7.3-3.7
		c4.5,0,7.3,3.6,7.3,7.4c0,2.8-1.5,5-3.8,7.2L384.2,47l15.6,21c1.4,2,2.1,3.5,2.1,5.3c0,4.5-3.6,7.5-7.7,7.5c-3.3,0-5.2-1.1-7.2-3.8
		l-14.5-19.9l-6.6,6v9.5c0,4.6-3.7,8.3-8.3,8.3c-4.6,0-8.3-3.7-8.3-8.3V8.4z M432.2,81.5c-17.5,0-30.5-12.3-30.5-30.2v-0.2
		c0-16.7,11.9-30.4,28.9-30.4c19.5,0,28.1,16,28.1,28.1c0,4.8-3.4,7.9-7.7,7.9h-32.8c1.6,7.5,6.9,11.4,14.3,11.4
		c4.6,0,8.4-1.4,11.8-3.9c1.2-0.9,2.3-1.3,4-1.3c3.7,0,6.4,2.8,6.4,6.5c0,2.2-1,3.8-2.2,4.9C447.3,78.8,440.7,81.5,432.2,81.5z
		 M442.9,46.5c-1-7.4-5.3-12.4-12.3-12.4c-6.9,0-11.3,4.9-12.6,12.4H442.9z M464.2,29.5c0-4.6,3.7-8.3,8.3-8.3
		c4.6,0,8.3,3.7,8.3,8.3v2.6c2.4-5.7,6.3-10.9,11.2-10.9c5.1,0,8.1,3.4,8.1,8.1c0,4.4-2.8,7-6.2,7.7c-8.4,2-13.1,8.4-13.1,20.1v15.5
		c0,4.6-3.7,8.3-8.3,8.3c-4.6,0-8.3-3.7-8.3-8.3V29.5z M324.9,29.4c0-4.5,3.5-8.2,8-8.2c4.6,0,8,3.7,8,8.3v43.1c0,4.6-3.5,8.3-8,8.3
		c-4.6,0-8-3.7-8-8.3v-0.8c-3.7,5.4-9.5,9.5-18.1,9.5c-13.6,0-26.5-10.7-26.5-30.2V51c0-19.5,12.6-30.2,26.5-30.2
		c8.8,0,14.4,4,18.1,8.7V29.4z M296.4,51v0.2c0,9.7,6.6,16.1,14.3,16.1c7.7,0,14.2-6.4,14.2-16.1V51c0-9.7-6.4-16.1-14.2-16.1
		C303,34.8,296.4,41.2,296.4,51z"/>
</g>
</svg>
